<?xml version="1.0" encoding="UTF-8"?><svg id="_クレーン" xmlns="http://www.w3.org/2000/svg" viewBox="0 0 500 500"><defs><style>.cls-1{fill:#fff;}.cls-2{fill:none;}.cls-3{fill:#231815;}</style></defs><g><polygon class="cls-2" points="199.36 216.51 184.36 231.42 214.35 231.42 199.36 216.51"/><polygon class="cls-2" points="199.36 163.23 184.37 178.15 214.35 178.15 199.36 163.23"/><polygon class="cls-2" points="184.37 187.86 199.36 202.77 214.35 187.86 184.37 187.86"/><polygon class="cls-2" points="184.37 134.58 199.36 149.5 214.35 134.58 184.37 134.58"/><polygon class="cls-2" points="183.39 200.62 183.39 218.66 192.45 209.64 183.39 200.62"/><polygon class="cls-2" points="199.36 109.96 184.37 124.87 214.35 124.87 199.36 109.96"/><polygon class="cls-2" points="183.39 147.35 183.39 165.38 192.45 156.36 183.39 147.35"/><polygon class="cls-2" points="183.39 94.07 183.39 112.11 192.45 103.09 183.39 94.07"/><rect class="cls-2" x="215.55" y="66.26" width="9.46" height=".08"/><polygon class="cls-2" points="184.36 241.14 199.36 256.05 214.35 241.14 184.36 241.14"/><polygon class="cls-2" points="199.36 269.79 184.37 284.7 214.35 284.7 199.36 269.79"/><polygon class="cls-2" points="213.39 82.26 185.32 82.26 199.36 96.22 213.39 82.26"/><polygon class="cls-2" points="199.36 309.33 214.35 294.41 184.37 294.41 199.36 309.33"/><polygon class="cls-2" points="215.33 112.11 215.33 94.07 206.26 103.09 215.33 112.11"/><polygon class="cls-2" points="215.33 165.38 215.33 147.35 206.26 156.36 215.33 165.38"/><polygon class="cls-2" points="183.39 253.9 183.39 271.94 192.45 262.92 183.39 253.9"/><polygon class="cls-2" points="215.33 218.66 215.33 200.62 206.26 209.64 215.33 218.66"/><polygon class="cls-2" points="215.33 271.94 215.33 253.9 206.26 262.92 215.33 271.94"/><polygon class="cls-2" points="215.33 325.21 215.33 307.18 206.26 316.19 215.33 325.21"/><polygon class="cls-2" points="199.36 163.23 184.37 178.15 214.35 178.15 199.36 163.23"/><polygon class="cls-2" points="184.37 134.58 199.36 149.5 214.35 134.58 184.37 134.58"/><polygon class="cls-2" points="184.37 187.86 199.36 202.77 214.35 187.86 184.37 187.86"/><polygon class="cls-2" points="183.39 94.07 183.39 112.11 192.45 103.09 183.39 94.07"/><polygon class="cls-2" points="199.36 109.96 184.37 124.87 214.35 124.87 199.36 109.96"/><polygon class="cls-2" points="199.36 309.33 214.35 294.41 184.37 294.41 199.36 309.33"/><polygon class="cls-2" points="199.36 269.79 184.37 284.7 214.35 284.7 199.36 269.79"/><polygon class="cls-2" points="213.39 82.26 185.32 82.26 199.36 96.22 213.39 82.26"/><polygon class="cls-2" points="199.36 216.51 184.36 231.42 214.35 231.42 199.36 216.51"/><polygon class="cls-2" points="184.36 241.14 199.36 256.05 214.35 241.14 184.36 241.14"/><polygon class="cls-2" points="183.39 147.35 183.39 165.38 192.45 156.36 183.39 147.35"/><polygon class="cls-2" points="215.33 112.11 215.33 94.07 206.26 103.09 215.33 112.11"/><polygon class="cls-2" points="215.33 218.66 215.33 200.62 206.26 209.64 215.33 218.66"/><polygon class="cls-2" points="215.33 165.38 215.33 147.35 206.26 156.36 215.33 165.38"/><polygon class="cls-2" points="215.33 271.94 215.33 253.9 206.26 262.92 215.33 271.94"/><polygon class="cls-2" points="183.39 200.62 183.39 218.66 192.45 209.64 183.39 200.62"/><polygon class="cls-2" points="183.39 253.9 183.39 271.94 192.45 262.92 183.39 253.9"/><polygon class="cls-2" points="215.33 325.21 215.33 307.18 206.26 316.19 215.33 325.21"/><polygon class="cls-2" points="214.35 284.7 199.36 269.79 184.37 284.7 214.35 284.7"/><polygon class="cls-2" points="199.36 309.33 214.35 294.41 184.37 294.41 199.36 309.33"/><polygon class="cls-2" points="199.36 256.05 214.35 241.14 184.36 241.14 199.36 256.05"/><polygon class="cls-2" points="215.33 325.21 215.33 307.18 206.26 316.19 215.33 325.21"/><polygon class="cls-2" points="215.33 271.94 215.33 253.9 206.26 262.92 215.33 271.94"/><polygon class="cls-2" points="199.36 202.77 214.35 187.86 184.37 187.86 199.36 202.77"/><polygon class="cls-2" points="199.36 109.96 184.37 124.87 214.35 124.87 199.36 109.96"/><polygon class="cls-2" points="199.36 149.5 214.35 134.58 184.37 134.58 199.36 149.5"/><polygon class="cls-2" points="215.33 218.66 215.33 200.62 206.26 209.64 215.33 218.66"/><polygon class="cls-2" points="214.35 231.42 199.36 216.51 184.36 231.42 214.35 231.42"/><polygon class="cls-2" points="214.35 178.15 199.36 163.23 184.37 178.15 214.35 178.15"/><polygon class="cls-2" points="183.39 147.35 183.39 165.38 192.45 156.36 183.39 147.35"/><polygon class="cls-2" points="183.39 200.62 183.39 218.66 192.45 209.64 183.39 200.62"/><polygon class="cls-2" points="215.33 165.38 215.33 147.35 206.26 156.36 215.33 165.38"/><polygon class="cls-2" points="183.39 253.9 183.39 271.94 192.45 262.92 183.39 253.9"/><polygon class="cls-2" points="215.33 112.11 215.33 94.07 206.26 103.09 215.33 112.11"/><polygon class="cls-2" points="183.39 94.07 183.39 112.11 192.45 103.09 183.39 94.07"/><polygon class="cls-2" points="213.39 82.26 185.32 82.26 199.36 96.22 213.39 82.26"/><polygon class="cls-1" points="389.15 110.77 224.08 66.7 221.39 76.67 349.1 110.77 235.41 110.77 235.41 136.41 345.59 136.41 345.59 187.46 345.23 187.46 345.23 187.47 337.43 187.47 337.43 211.28 345.23 211.28 345.23 224.73 359.37 224.73 359.37 238.19 339.51 238.19 339.51 227.84 331.18 227.84 331.18 246.47 367.69 246.47 367.69 216.45 353.56 216.45 353.56 211.28 361.36 211.28 361.36 187.47 353.75 187.47 353.75 136.41 376.72 136.41 390.47 136.41 390.47 129.49 390.47 118.9 390.47 111.12 389.15 110.77"/><polygon class="cls-2" points="215.33 325.21 215.33 307.18 206.26 316.19 215.33 325.21"/><polygon class="cls-2" points="199.36 256.05 214.35 241.14 184.36 241.14 199.36 256.05"/><polygon class="cls-2" points="214.35 284.7 199.36 269.79 184.37 284.7 214.35 284.7"/><polygon class="cls-2" points="215.33 112.11 215.33 94.07 206.26 103.09 215.33 112.11"/><polygon class="cls-2" points="215.33 165.38 215.33 147.35 206.26 156.36 215.33 165.38"/><polygon class="cls-2" points="215.33 218.66 215.33 200.62 206.26 209.64 215.33 218.66"/><polygon class="cls-2" points="215.33 271.94 215.33 253.9 206.26 262.92 215.33 271.94"/><polygon class="cls-2" points="199.36 202.77 214.35 187.86 184.37 187.86 199.36 202.77"/><polygon class="cls-2" points="199.36 149.5 214.35 134.58 184.37 134.58 199.36 149.5"/><polygon class="cls-2" points="184.37 294.41 199.36 309.33 214.35 294.41 184.37 294.41"/><polygon class="cls-2" points="214.35 178.15 199.36 163.23 184.37 178.15 214.35 178.15"/><polygon class="cls-2" points="199.36 109.96 184.37 124.87 214.35 124.87 199.36 109.96"/><polygon class="cls-2" points="214.35 231.42 199.36 216.51 184.36 231.42 214.35 231.42"/><polygon class="cls-2" points="183.39 200.62 183.39 218.66 192.45 209.64 183.39 200.62"/><polygon class="cls-2" points="213.39 82.26 185.32 82.26 199.36 96.22 213.39 82.26"/><polygon class="cls-2" points="183.39 253.9 183.39 271.94 192.45 262.92 183.39 253.9"/><polygon class="cls-2" points="183.39 147.35 183.39 165.38 192.45 156.36 183.39 147.35"/><polygon class="cls-2" points="183.39 94.07 183.39 112.11 192.45 103.09 183.39 94.07"/><rect class="cls-2" x="173.28" y="82.26" width=".35" height="250.09"/><polygon class="cls-2" points="190.02 332.35 208.69 332.35 199.36 323.06 190.02 332.35"/><polygon class="cls-2" points="192.45 316.19 183.39 307.18 192.45 316.19 192.45 316.19"/><polygon class="cls-2" points="183.39 307.18 183.39 325.21 192.45 316.19 183.39 307.18"/><path class="cls-1" d="M199.36,323.06l9.34,9.29h16.32V66.55h-51.3V332.35h16.3l9.34-9.29Zm-14.99-28.65h29.98l-14.99,14.91-14.99-14.91Zm29.98-159.83l-14.99,14.91-14.99-14.91h29.98Zm-29.98-9.71l14.99-14.91,14.99,14.91h-29.98Zm29.98,53.28h-29.98l14.99-14.91,14.99,14.91Zm0,9.71l-14.99,14.91-14.99-14.91h29.98Zm0,43.56h-29.98l14.99-14.91,14.99,14.91Zm0,9.71l-14.99,14.91-14.99-14.91h29.98Zm0,43.56h-29.98l14.99-14.91,14.99,14.91Zm.98,40.51l-9.07-9.02,9.07-9.02v18.04Zm0-53.28l-9.07-9.02,9.07-9.02v18.04Zm0-53.28l-9.07-9.02,9.07-9.02v18.04Zm0-53.28l-9.07-9.02,9.07-9.02v18.04Zm0-53.28l-9.07-9.02,9.07-9.02v18.04Zm-1.93-29.85l-14.03,13.96-14.04-13.96h28.07Zm-30,11.81l9.07,9.02-9.07,9.02v-18.04Zm0,53.28l9.07,9.02-9.07,9.02v-18.04Zm0,53.28l9.07,9.02-9.07,9.02v-18.04Zm0,53.28l9.07,9.02-9.07,9.02v-18.04Zm0,71.31v-18.04l9.07,9.02h0s0,0,0,0l-9.07,9.02h0Z"/><rect class="cls-3" x="181.53" y="320.7" width="12.79" height="0" transform="translate(-171.49 225.89) rotate(-44.85)"/><polygon class="cls-1" points="225.02 332.35 208.69 332.35 190.02 332.35 173.72 332.35 173.62 332.35 173.28 332.35 152.95 332.35 152.95 348.16 244.89 348.16 244.89 332.35 225.02 332.35"/><polygon class="cls-1" points="180.07 75.03 174.12 66.56 110.09 111.11 109.78 111.33 109.73 111.36 109.53 111.51 109.53 111.63 109.53 111.72 109.53 136.41 110.09 136.41 162.88 136.41 162.88 110.77 128.7 110.77 180.07 75.03"/></g><path class="cls-1" d="M450,16.21c19.3,0,35,15.62,35,34.82V448.97c0,19.2-15.7,34.82-35,34.82H50c-19.3,0-35-15.62-35-34.82V51.03c0-19.2,15.7-34.82,35-34.82H450m0-14.92H50C22.5,1.29,0,23.67,0,51.03V448.97c0,27.36,22.5,49.74,50,49.74H450c27.5,0,50-22.38,50-49.74V51.03c0-27.36-22.5-49.74-50-49.74h0Z"/><g><path class="cls-1" d="M151.82,378.84c-.74-1.01-1.1-1.92-1.1-2.93,0-2.11,2.21-4.12,4.51-4.12,1.29,0,2.67,.82,3.59,2.1l22,31.86,22-31.86c.92-1.28,2.3-2.1,3.59-2.1,2.39,0,4.51,2.01,4.51,4.12,0,1.01-.37,1.92-1.11,2.93l-24.85,33.97v31.86c0,2.01-1.75,3.48-4.14,3.48s-4.14-1.46-4.14-3.48v-31.86l-24.85-33.97Z"/><path class="cls-1" d="M244.57,372.89c10.49,0,18.77,2.11,25.4,6.5,9.76,6.41,15,17.12,15,30.49,0,23.62-15,37.17-41.04,37.17h-12.24c-6.44,0-9.75-3.3-9.75-9.89v-54.38c0-6.59,3.31-9.89,9.75-9.89h12.89Zm-14.27,64.18c0,1.65,.92,2.56,2.58,2.56h10.49c20.43,0,32.49-10.99,32.49-29.66s-11.32-29.66-31.93-29.66h-11.04c-1.75,0-2.58,.82-2.58,2.56v54.2Z"/><path class="cls-1" d="M308.13,444.67c0,2.01-1.75,3.48-4.14,3.48s-4.23-1.46-4.23-3.48v-62.9c0-5.86,2.94-8.88,8.93-8.88h36.9c1.84,0,3.22,1.56,3.22,3.66s-1.38,3.66-3.22,3.66h-35.34c-1.38,0-2.12,.73-2.12,2.01v23.16h32.49c1.75,0,3.13,1.46,3.13,3.48s-1.29,3.57-3.13,3.57h-32.49v32.23Z"/></g></svg>