<svg id="クレーン" xmlns="http://www.w3.org/2000/svg" viewBox="0 0 500 500"><defs><linearGradient id="名称未設定グラデーション_21" y1="250" x2="500" y2="250" gradientUnits="userSpaceOnUse"><stop offset="0" stop-color="#2796a7"/><stop offset=".52" stop-color="#28ceb4"/><stop offset=".95" stop-color="#58d5c3"/></linearGradient><style>.cls-2{fill:none}.cls-3{fill:#fff}</style></defs><rect width="500" height="500" rx="50" fill="url(#名称未設定グラデーション_21)"/><path class="cls-2" d="M199.36 216.34l-14.99 14.99h29.98l-14.99-14.99zm0-53.56l-14.99 14.99h29.98l-14.99-14.99zm-14.99 24.76l14.99 14.99 14.99-14.99h-29.98zm0-53.56l14.99 14.99 14.99-14.99h-29.98zm-.98 66.39v18.13l9.06-9.07-9.06-9.06zm15.97-91.14l-14.99 14.99h29.98l-14.99-14.99zm-15.97 37.58v18.13l9.06-9.06-9.06-9.07zm0-53.55v18.13l9.06-9.06-9.06-9.07zm32.16-27.95h9.46v.08h-9.46zm-31.18 175.78l14.99 14.99 14.99-14.99h-29.98zm14.99 28.8l-14.99 14.99h29.98l-14.99-14.99zm14.03-188.5h-28.07l14.04 14.03 14.03-14.03zm-14.03 228.24l14.99-14.99h-29.98l14.99 14.99zm15.96-198.24V93.26l-9.06 9.07 9.06 9.06zm0 53.55v-18.13l-9.06 9.07 9.06 9.06zm-31.93 88.98v18.13l9.06-9.07-9.06-9.06zm31.93-35.42v-18.13l-9.06 9.06 9.06 9.07zm0 53.55v-18.13l-9.06 9.06 9.06 9.07zm0 53.55v-18.13l-9.06 9.07 9.06 9.06z"/><path class="cls-2" d="M199.36 162.78l-14.99 14.99h29.98l-14.99-14.99zm-14.99-28.8l14.99 14.99 14.99-14.99h-29.98zm0 53.56l14.99 14.99 14.99-14.99h-29.98zm-.98-94.28v18.13l9.06-9.06-9.06-9.07zm15.97 15.97l-14.99 14.99h29.98l-14.99-14.99zm0 200.4l14.99-14.99h-29.98l14.99 14.99zm0-39.74l-14.99 14.99h29.98l-14.99-14.99zm14.03-188.5h-28.07l14.04 14.03 14.03-14.03zm-14.03 134.95l-14.99 14.99h29.98l-14.99-14.99zm-14.99 24.75l14.99 14.99 14.99-14.99h-29.98zm-.98-94.28v18.13l9.06-9.06-9.06-9.07zm31.93-35.42V93.26l-9.06 9.07 9.06 9.06zm0 107.11v-18.13l-9.06 9.06 9.06 9.07zm0-53.56v-18.13l-9.06 9.07 9.06 9.06zm0 107.11v-18.13l-9.06 9.06 9.06 9.07zm-31.93-71.68v18.13l9.06-9.07-9.06-9.06zm0 53.55v18.13l9.06-9.07-9.06-9.06zm31.93 71.68v-18.13l-9.06 9.07 9.06 9.06z"/><path class="cls-2" d="M214.35 284.88l-14.99-14.99-14.99 14.99h29.98zm-14.99 24.75l14.99-14.99h-29.98l14.99 14.99zm0-53.55l14.99-14.99h-29.98l14.99 14.99zm15.96 69.52v-18.13l-9.06 9.07 9.06 9.06zm0-53.55v-18.13l-9.06 9.06 9.06 9.07zm-15.96-69.52l14.99-14.99h-29.98l14.99 14.99zm0-93.3l-14.99 14.99h29.98l-14.99-14.99zm0 39.74l14.99-14.99h-29.98l14.99 14.99zm15.96 69.53v-18.13l-9.06 9.06 9.06 9.07zm-.97 12.83l-14.99-14.99-14.99 14.99h29.98zm0-53.56l-14.99-14.99-14.99 14.99h29.98zm-30.96-30.96v18.13l9.06-9.06-9.06-9.07zm0 53.56v18.13l9.06-9.07-9.06-9.06zm31.93-35.43v-18.13l-9.06 9.07 9.06 9.06zm-31.93 88.98v18.13l9.06-9.07-9.06-9.06zm31.93-142.53V93.26l-9.06 9.07 9.06 9.06zm-31.93-18.13v18.13l9.06-9.06-9.06-9.07zm30-11.87h-28.07l14.04 14.03 14.03-14.03z"/><path class="cls-3" d="M389.15 110.05l-165.07-44.3-2.69 10.03 127.71 34.27H235.41v25.78h110.18v51.3h-.36v.01h-7.8v23.93h7.8v13.53h14.14v13.53h-19.86v-10.41h-8.33v18.74h36.51v-30.18h-14.13v-5.21h7.8v-23.93h-7.61v-51.31h36.72V110.4l-1.32-.35z"/><path class="cls-2" d="M215.32 325.6v-18.13l-9.06 9.07 9.06 9.06zm-15.96-69.52l14.99-14.99h-29.98l14.99 14.99zm14.99 28.8l-14.99-14.99-14.99 14.99h29.98zm.97-173.49V93.26l-9.06 9.07 9.06 9.06zm0 53.55v-18.13l-9.06 9.07 9.06 9.06zm0 53.56v-18.13l-9.06 9.06 9.06 9.07zm0 53.55v-18.13l-9.06 9.06 9.06 9.07zm-15.96-69.52l14.99-14.99h-29.98l14.99 14.99zm0-53.56l14.99-14.99h-29.98l14.99 14.99zm-14.99 145.67l14.99 14.99 14.99-14.99h-29.98zm29.98-116.87l-14.99-14.99-14.99 14.99h29.98zm-14.99-68.54l-14.99 14.99h29.98l-14.99-14.99zm14.99 122.1l-14.99-14.99-14.99 14.99h29.98zm-30.96-30.96v18.13l9.06-9.07-9.06-9.06zm30-118.98h-28.07l14.04 14.03 14.03-14.03zm-30 172.53v18.13l9.06-9.07-9.06-9.06zm0-107.11v18.13l9.06-9.06-9.06-9.07zm0-53.55v18.13l9.06-9.06-9.06-9.07zm-10.11-11.87h.35v251.39h-.35zm16.74 251.39h18.67l-9.33-9.34-9.34 9.34zm2.43-16.24l-9.06-9.07 9.06 9.07zm-9.06-9.07v18.13l9.06-9.06-9.06-9.07z"/><path class="cls-3" d="M199.36 323.44l9.33 9.34H225V65.6h-51.3v267.18H190zm-15-28.8h30l-15 15zm30-160.66l-15 15-15-15zm-30-9.76l15-15 15 15zm30 53.55h-30l15-15zm0 9.77l-15 15-15-15zm0 43.79h-30l15-15zm0 9.76l-15 15-15-15zm0 43.79h-30l15-15zm1 40.72l-9.07-9.06 9.07-9.07zm0-53.55l-9.1-9.05 9.07-9.06zm0-53.55l-9.07-9.07 9.07-9.06zm0-53.56l-9.07-9.06 9.07-9.07zm0-53.55l-9.07-9.06 9.07-9.07zm-1.94-30l-14 14-14-14zm-30 11.87l9.06 9.07-9.06 9.06zm0 53.55l9.06 9.07-9.06 9.06zm0 53.56l9.06 9.06-9.06 9.07zm0 53.55l9.06 9.06-9.06 9.07zm0 71.68v-18.13l9.06 9.07-9.06 9.06z"/><rect x="181.51" y="321.07" width="12.82" transform="rotate(-45 187.934 321.075)" fill="#231815"/><path class="cls-3" d="M225.02 332.78h-72.07v15.89h91.94v-15.89h-19.87zM180.07 74.12l-5.95-8.51-64.03 44.78-.31.22-.05.03-.2.15v25.04h53.35v-25.78H128.7l51.37-35.93zm-28.25 297.6a4.92 4.92 0 01-1.1-2.94 4.59 4.59 0 014.51-4.14 4.69 4.69 0 013.59 2.12l22 32 22-32a4.69 4.69 0 013.59-2.12 4.52 4.52 0 014.51 4.14 4.87 4.87 0 01-1.11 2.94l-24.84 34.13v32c0 2-1.75 3.49-4.14 3.49s-4.14-1.47-4.14-3.49v-32zm92.74-5.98c10.49 0 18.77 2.12 25.39 6.54 9.75 6.43 15 17.2 15 30.63 0 23.73-15 37.35-41 37.35h-12.27c-6.44 0-9.75-3.31-9.75-9.94v-54.64c0-6.62 3.31-9.94 9.75-9.94zm-14.26 64.49a2.33 2.33 0 002.58 2.58h10.48c20.43 0 32.48-11 32.48-29.81 0-19.22-11.32-29.8-31.93-29.8h-11a2.25 2.25 0 00-2.58 2.57zm77.83 7.64c0 2-1.75 3.49-4.14 3.49s-4.23-1.47-4.23-3.49v-63.2c0-5.89 2.94-8.93 8.92-8.93h36.89a3.71 3.71 0 010 7.36h-35.32a1.88 1.88 0 00-2.12 2v23.3h32.47a3.26 3.26 0 013.13 3.5c0 2.11-1.29 3.59-3.13 3.59h-32.47z"/></svg>