<svg id="_クレーン" xmlns="http://www.w3.org/2000/svg" viewBox="0 0 500 500"><defs><style>.cls-1{fill:#fff}.cls-2{fill:none}</style></defs><path class="cls-2" d="M199.36 216.51l-15 14.91h29.99l-14.99-14.91zm0-53.28l-14.99 14.92h29.98l-14.99-14.92zm-14.99 24.63l14.99 14.91 14.99-14.91h-29.98zm0-53.28l14.99 14.92 14.99-14.92h-29.98zm-.98 66.04v18.04l9.06-9.02-9.06-9.02zm15.97-90.66l-14.99 14.91h29.98l-14.99-14.91zm-15.97 37.39v18.03l9.06-9.02-9.06-9.01zm0-53.28v18.04l9.06-9.02-9.06-9.02zm32.16-27.81h9.46v.08h-9.46zm-31.19 174.88l15 14.91 14.99-14.91h-29.99zm15 28.65l-14.99 14.91h29.98l-14.99-14.91zm14.03-187.53h-28.07l14.04 13.96 14.03-13.96zm-14.03 227.07l14.99-14.92h-29.98l14.99 14.92zm15.97-197.22V94.07l-9.07 9.02 9.07 9.02zm0 53.27v-18.03l-9.07 9.01 9.07 9.02zm-31.94 88.52v18.04l9.06-9.02-9.06-9.02zm31.94-35.24v-18.04l-9.07 9.02 9.07 9.02zm0 53.28V253.9l-9.07 9.02 9.07 9.02zm0 53.27v-18.03l-9.07 9.01 9.07 9.02z"/><path class="cls-2" d="M199.36 163.23l-14.99 14.92h29.98l-14.99-14.92zm-14.99-28.65l14.99 14.92 14.99-14.92h-29.98zm0 53.28l14.99 14.91 14.99-14.91h-29.98zm-.98-93.79v18.04l9.06-9.02-9.06-9.02zm15.97 15.89l-14.99 14.91h29.98l-14.99-14.91zm0 199.37l14.99-14.92h-29.98l14.99 14.92zm0-39.54l-14.99 14.91h29.98l-14.99-14.91zm14.03-187.53h-28.07l14.04 13.96 14.03-13.96zm-14.03 134.25l-15 14.91h29.99l-14.99-14.91zm-15 24.63l15 14.91 14.99-14.91h-29.99zm-.97-93.79v18.03l9.06-9.02-9.06-9.01zm31.94-35.24V94.07l-9.07 9.02 9.07 9.02zm0 106.55v-18.04l-9.07 9.02 9.07 9.02zm0-53.28v-18.03l-9.07 9.01 9.07 9.02zm0 106.56V253.9l-9.07 9.02 9.07 9.02zm-31.94-71.32v18.04l9.06-9.02-9.06-9.02zm0 53.28v18.04l9.06-9.02-9.06-9.02zm31.94 71.31v-18.03l-9.07 9.01 9.07 9.02z"/><path class="cls-2" d="M214.35 284.7l-14.99-14.91-14.99 14.91h29.98zm-14.99 24.63l14.99-14.92h-29.98l14.99 14.92zm0-53.28l14.99-14.91h-29.99l15 14.91zm15.97 69.16v-18.03l-9.07 9.01 9.07 9.02zm0-53.27V253.9l-9.07 9.02 9.07 9.02zm-15.97-69.17l14.99-14.91h-29.98l14.99 14.91zm0-92.81l-14.99 14.91h29.98l-14.99-14.91zm0 39.54l14.99-14.92h-29.98l14.99 14.92zm15.97 69.16v-18.04l-9.07 9.02 9.07 9.02zm-.98 12.76l-14.99-14.91-15 14.91h29.99zm0-53.27l-14.99-14.92-14.99 14.92h29.98zm-30.96-30.8v18.03l9.06-9.02-9.06-9.01zm0 53.27v18.04l9.06-9.02-9.06-9.02zm31.94-35.24v-18.03l-9.07 9.01 9.07 9.02zm-31.94 88.52v18.04l9.06-9.02-9.06-9.02zm31.94-141.79V94.07l-9.07 9.02 9.07 9.02zm-31.94-18.04v18.04l9.06-9.02-9.06-9.02zm30-11.81h-28.07l14.04 13.96 14.03-13.96z"/><path class="cls-1" d="M389.15 110.77L224.08 66.7l-2.69 9.97 127.71 34.1H235.41v25.64h110.18v51.05h-.36v.01h-7.8v23.81h7.8v13.45h14.14v13.46h-19.86v-10.35h-8.33v18.63h36.51v-30.02h-14.13v-5.17h7.8v-23.81h-7.61v-51.06h36.72v-25.29l-1.32-.35z"/><path class="cls-2" d="M215.33 325.21v-18.03l-9.07 9.01 9.07 9.02zm-15.97-69.16l14.99-14.91h-29.99l15 14.91zm14.99 28.65l-14.99-14.91-14.99 14.91h29.98zm.98-172.59V94.07l-9.07 9.02 9.07 9.02zm0 53.27v-18.03l-9.07 9.01 9.07 9.02zm0 53.28v-18.04l-9.07 9.02 9.07 9.02zm0 53.28V253.9l-9.07 9.02 9.07 9.02zm-15.97-69.17l14.99-14.91h-29.98l14.99 14.91zm0-53.27l14.99-14.92h-29.98l14.99 14.92zm-14.99 144.91l14.99 14.92 14.99-14.92h-29.98zm29.98-116.26l-14.99-14.92-14.99 14.92h29.98zm-14.99-68.19l-14.99 14.91h29.98l-14.99-14.91zm14.99 121.46l-14.99-14.91-15 14.91h29.99zm-30.96-30.8v18.04l9.06-9.02-9.06-9.02zm30-118.36h-28.07l14.04 13.96 14.03-13.96zm-30 171.64v18.04l9.06-9.02-9.06-9.02zm0-106.55v18.03l9.06-9.02-9.06-9.01zm0-53.28v18.04l9.06-9.02-9.06-9.02zm-10.11-11.81h.35v250.09h-.35zm16.74 250.09h18.67l-9.33-9.29-9.34 9.29zm2.43-16.16l-9.06-9.01 9.06 9.01zm-9.06-9.01v18.03l9.06-9.02-9.06-9.01z"/><path class="cls-1" d="M199.36 323.06l9.34 9.29h16.32V66.55h-51.3v265.8h16.3l9.34-9.29zm-14.99-28.65h29.98l-14.99 14.91-14.99-14.91zm29.98-159.83l-14.99 14.91-14.99-14.91h29.98zm-29.98-9.71l14.99-14.91 14.99 14.91h-29.98zm29.98 53.28h-29.98l14.99-14.91 14.99 14.91zm0 9.71l-14.99 14.91-14.99-14.91h29.98zm0 43.56h-29.98l14.99-14.91 14.99 14.91zm0 9.71l-14.99 14.91-14.99-14.91h29.98zm0 43.56h-29.98l14.99-14.91 14.99 14.91zm.98 40.51l-9.07-9.02 9.07-9.02v18.04zm0-53.28l-9.07-9.02 9.07-9.02v18.04zm0-53.28l-9.07-9.02 9.07-9.02v18.04zm0-53.28l-9.07-9.02 9.07-9.02v18.04zm0-53.28l-9.07-9.02 9.07-9.02v18.04zm-1.93-29.85l-14.03 13.96-14.04-13.96h28.07zm-30 11.81l9.07 9.02-9.07 9.02V94.04zm0 53.28l9.07 9.02-9.07 9.02v-18.04zm0 53.28l9.07 9.02-9.07 9.02V200.6zm0 53.28l9.07 9.02-9.07 9.02v-18.04zm0 71.31v-18.04l9.07 9.02-9.07 9.02zm41.62 7.16h-72.07v15.81h91.94v-15.81h-19.87z"/><path class="cls-1" d="M180.07 75.03l-5.95-8.47-64.03 44.55-.31.22-.05.03-.2.15v24.9h53.35v-25.64H128.7l51.37-35.74z"/><path class="cls-1" d="M450 16.21c19.3 0 35 15.62 35 34.82v397.94c0 19.2-15.7 34.82-35 34.82H50c-19.3 0-35-15.62-35-34.82V51.03c0-19.2 15.7-34.82 35-34.82h400m0-14.92H50c-27.5 0-50 22.38-50 49.74v397.94c0 27.36 22.5 49.74 50 49.74h400c27.5 0 50-22.38 50-49.74V51.03c0-27.36-22.5-49.74-50-49.74z"/><path class="cls-1" d="M151.82 378.84c-.74-1.01-1.1-1.92-1.1-2.93 0-2.11 2.21-4.12 4.51-4.12 1.29 0 2.67.82 3.59 2.1l22 31.86 22-31.86c.92-1.28 2.3-2.1 3.59-2.1 2.39 0 4.51 2.01 4.51 4.12 0 1.01-.37 1.92-1.11 2.93l-24.85 33.97v31.86c0 2.01-1.75 3.48-4.14 3.48s-4.14-1.46-4.14-3.48v-31.86l-24.85-33.97zm92.75-5.95c10.49 0 18.77 2.11 25.4 6.5 9.76 6.41 15 17.12 15 30.49 0 23.62-15 37.17-41.04 37.17h-12.24c-6.44 0-9.75-3.3-9.75-9.89v-54.38c0-6.59 3.31-9.89 9.75-9.89h12.89zm-14.27 64.18c0 1.65.92 2.56 2.58 2.56h10.49c20.43 0 32.49-10.99 32.49-29.66s-11.32-29.66-31.93-29.66h-11.04c-1.75 0-2.58.82-2.58 2.56v54.2zm77.83 7.6c0 2.01-1.75 3.48-4.14 3.48s-4.23-1.46-4.23-3.48v-62.9c0-5.86 2.94-8.88 8.93-8.88h36.9c1.84 0 3.22 1.56 3.22 3.66s-1.38 3.66-3.22 3.66h-35.34c-1.38 0-2.12.73-2.12 2.01v23.16h32.49c1.75 0 3.13 1.46 3.13 3.48s-1.29 3.57-3.13 3.57h-32.49v32.23z"/></svg>