<svg xmlns="http://www.w3.org/2000/svg" xmlns:xlink="http://www.w3.org/1999/xlink" viewBox="0 0 40 40"><defs><style>.cls-1{fill:url(#名称未設定グラデーション_20);}.cls-2{fill:#fff;}</style><linearGradient id="名称未設定グラデーション_20" x1="3.47" y1="36.53" x2="36.53" y2="3.47" gradientUnits="userSpaceOnUse"><stop offset="0.01" stop-color="#a9d198"/><stop offset="1" stop-color="#79bd67"/></linearGradient></defs><g id="枠"><rect class="cls-1" x="2" y="2" width="36" height="36" rx="5"/></g><g id="文字"><path class="cls-2" d="M9.49,8.21a1.09,1.09,0,0,1-.24-.64,1,1,0,0,1,1-1,1,1,0,0,1,.82.45l3.29,4.75,3.28-4.75a1,1,0,0,1,1.86.51,1,1,0,0,1-.24.64l-3.93,5.25v4.91c0,.46-.4.79-1,.79a.85.85,0,0,1-1-.79V13.46Z"/><path class="cls-2" d="M25.44,6.8C29.5,6.8,32,9.08,32,12.86A5.73,5.73,0,0,1,29.34,18a7.56,7.56,0,0,1-4,.94h-2a1.76,1.76,0,0,1-2-2V8.8a1.76,1.76,0,0,1,2-2Zm-2.18,10a.42.42,0,0,0,.45.47h1.37c3.06,0,4.8-1.59,4.8-4.41s-1.67-4.43-4.73-4.43H23.71c-.3,0-.45.15-.45.47Z"/><path class="cls-2" d="M18.26,33.38a.85.85,0,0,1-1,.78c-.56,0-1-.33-1-.78V23.56A1.56,1.56,0,0,1,18.1,21.8H24a.74.74,0,0,1,.69.83c0,.49-.28.84-.69.84H18.63c-.25,0-.35.1-.37.36v3.22h4.95a.73.73,0,0,1,.67.78.72.72,0,0,1-.67.81H18.26Z"/></g></svg>